<?xml version="1.0" encoding="UTF-8" standalone="no"?>
<!DOCTYPE svg PUBLIC "-//W3C//DTD SVG 20010904//EN"
              "http://www.w3.org/TR/2001/REC-SVG-20010904/DTD/svg10.dtd">

<svg xmlns="http://www.w3.org/2000/svg"
     width="277.851mm" height="114.051mm"
     viewBox="0 0 1050 431">
  <path id="Selection"
        fill="rgb(90, 66, 100)" stroke="rgb(90, 66, 100)" stroke-width="1"
        d="M 122.00,1.00
           C 122.00,1.00 132.00,1.00 132.00,1.00
             132.00,1.00 132.00,363.00 132.00,363.00
             132.00,363.00 1050.00,363.00 1050.00,363.00
             1050.00,363.00 1050.00,372.00 1050.00,372.00
             1050.00,372.00 0.00,372.00 0.00,372.00
             0.00,372.00 0.00,363.00 0.00,363.00
             0.00,363.00 122.00,363.00 122.00,363.00
             122.00,363.00 122.00,306.00 122.00,306.00
             122.00,306.00 92.00,330.08 92.00,330.08
             86.26,334.85 79.06,341.75 72.00,344.00
             72.00,344.00 73.02,334.04 73.02,334.04
             73.02,334.04 84.00,324.00 84.00,324.00
             84.00,324.00 108.00,304.60 108.00,304.60
             108.00,304.60 121.40,292.82 121.40,292.82
             121.40,292.82 122.00,286.00 122.00,286.00
             122.00,286.00 122.00,244.00 122.00,244.00
             122.00,244.00 90.00,267.63 90.00,267.63
             90.00,267.63 72.00,280.00 72.00,280.00
             72.00,277.07 71.62,271.65 73.02,269.18
             74.41,266.74 81.41,262.07 84.00,260.13
             84.00,260.13 107.00,243.00 107.00,243.00
             110.37,240.59 119.97,234.29 121.40,230.83
             122.12,229.08 122.00,225.93 122.00,224.00
             122.00,224.00 122.00,174.00 122.00,174.00
             122.00,174.00 92.00,196.15 92.00,196.15
             92.00,196.15 72.00,210.00 72.00,210.00
             72.00,207.04 71.62,201.68 73.02,199.17
             74.64,196.28 82.04,191.41 85.00,189.29
             85.00,189.29 108.00,172.37 108.00,172.37
             118.04,164.88 121.98,165.24 122.00,154.00
             122.00,154.00 122.00,106.00 122.00,106.00
             122.00,106.00 94.00,127.37 94.00,127.37
             94.00,127.37 72.00,143.00 72.00,143.00
             72.00,140.04 71.62,134.68 73.02,132.17
             74.51,129.51 81.29,124.90 84.00,122.87
             84.00,122.87 108.00,104.63 108.00,104.63
             116.83,98.00 121.98,97.30 122.00,86.00
             122.00,86.00 122.00,36.00 122.00,36.00
             122.00,36.00 72.00,73.00 72.00,73.00
             72.00,73.00 72.57,62.30 72.57,62.30
             72.57,62.30 83.00,53.13 83.00,53.13
             83.00,53.13 107.00,35.13 107.00,35.13
             107.00,35.13 121.40,22.83 121.40,22.83
             121.40,22.83 122.00,18.00 122.00,18.00
             122.00,18.00 122.00,1.00 122.00,1.00 Z
           M 701.00,60.00
           C 701.00,60.00 1000.00,60.00 1000.00,60.00
             1000.00,60.00 1000.00,361.00 1000.00,361.00
             1000.00,361.00 701.00,361.00 701.00,361.00
             701.00,361.00 701.00,60.00 701.00,60.00 Z
           M 990.00,70.00
           C 990.00,70.00 711.00,70.00 711.00,70.00
             711.00,70.00 711.00,351.00 711.00,351.00
             711.00,351.00 990.00,351.00 990.00,351.00
             990.00,351.00 990.00,70.00 990.00,70.00 Z
           M 641.00,210.00
           C 641.00,210.00 648.08,219.00 648.08,219.00
             649.79,221.07 652.75,224.39 653.38,227.00
             654.26,230.61 651.68,233.35 648.03,232.21
             645.60,231.44 643.54,228.86 641.92,226.98
             641.92,226.98 629.47,212.00 629.47,212.00
             627.72,209.69 625.85,207.07 626.37,204.00
             626.84,201.20 629.14,198.96 631.02,197.00
             634.37,193.50 646.18,180.94 650.00,179.79
             653.62,178.70 656.30,181.38 655.21,185.00
             654.37,187.77 651.01,190.96 649.00,193.00
             649.00,193.00 642.00,200.00 642.00,200.00
             642.00,200.00 680.00,200.00 680.00,200.00
             683.29,200.05 689.37,200.35 689.37,205.00
             689.37,210.33 681.54,209.99 678.00,210.00
             678.00,210.00 641.00,210.00 641.00,210.00 Z
           M 865.00,202.00
           C 865.02,200.12 864.82,197.26 865.99,195.70
             867.76,193.34 880.73,189.51 884.00,189.00
             884.00,189.00 884.00,234.00 884.00,234.00
             884.00,234.00 876.00,234.00 876.00,234.00
             876.00,234.00 876.00,199.00 876.00,199.00
             876.00,199.00 865.00,202.00 865.00,202.00 Z
           M 808.00,200.00
           C 808.00,200.00 816.00,200.00 816.00,200.00
             816.00,200.00 816.00,204.00 816.00,204.00
             824.53,199.68 828.21,198.40 836.00,205.00
             841.10,199.37 851.44,197.84 854.85,206.04
             856.71,210.50 856.00,228.14 856.00,234.00
             856.00,234.00 848.00,234.00 848.00,234.00
             848.00,234.00 848.00,217.00 848.00,217.00
             847.95,213.55 847.87,209.12 843.89,207.79
             840.17,206.55 837.34,209.72 836.21,213.00
             836.21,213.00 836.21,234.00 836.21,234.00
             836.21,234.00 828.00,234.00 828.00,234.00
             828.00,234.00 828.00,216.00 828.00,216.00
             827.94,212.76 827.75,208.79 823.94,207.71
             820.77,206.81 818.10,209.10 817.16,212.04
             817.16,212.04 817.16,234.00 817.16,234.00
             817.16,234.00 808.00,234.00 808.00,234.00
             808.00,234.00 808.00,200.00 808.00,200.00 Z
           M 345.00,217.00
           C 345.00,217.00 493.00,217.00 493.00,217.00
             493.00,217.00 493.00,361.00 493.00,361.00
             493.00,361.00 345.00,361.00 345.00,361.00
             345.00,361.00 345.00,217.00 345.00,217.00 Z
           M 483.00,227.00
           C 483.00,227.00 355.00,227.00 355.00,227.00
             355.00,227.00 355.00,351.00 355.00,351.00
             355.00,351.00 483.00,351.00 483.00,351.00
             483.00,351.00 483.00,227.00 483.00,227.00 Z
           M 432.00,277.00
           C 432.49,268.22 437.07,263.25 446.00,262.34
             454.27,261.49 462.79,266.88 461.63,276.00
             460.57,284.37 449.68,294.82 444.00,301.00
             444.00,301.00 463.00,301.00 463.00,301.00
             463.00,301.00 463.00,308.00 463.00,308.00
             463.00,308.00 433.00,308.00 433.00,308.00
             433.02,306.07 432.92,303.83 433.60,302.00
             435.48,296.90 450.50,284.76 452.33,278.00
             453.71,272.93 449.64,268.94 446.01,269.74
             442.56,270.51 441.01,274.04 440.00,277.00
             440.00,277.00 432.00,277.00 432.00,277.00 Z
           M 378.00,274.00
           C 378.00,274.00 386.00,274.00 386.00,274.00
             386.00,274.00 386.00,278.00 386.00,278.00
             392.48,274.35 398.96,271.52 404.00,279.00
             406.15,277.70 408.67,276.00 411.00,275.15
             416.67,273.07 422.59,275.05 424.66,281.00
             426.64,286.71 426.00,301.32 426.00,308.00
             426.00,308.00 417.00,308.00 417.00,308.00
             417.00,308.00 417.00,290.00 417.00,290.00
             416.94,286.89 416.72,282.63 412.94,281.74
             409.61,280.96 407.05,284.12 406.16,287.00
             406.16,287.00 406.16,308.00 406.16,308.00
             406.16,308.00 397.83,308.00 397.83,308.00
             397.83,308.00 397.83,288.00 397.83,288.00
             397.08,285.20 395.33,281.63 391.99,281.63
             389.03,281.63 386.98,284.40 386.16,287.00
             386.16,287.00 386.16,308.00 386.16,308.00
             386.16,308.00 378.00,308.00 378.00,308.00
             378.00,308.00 378.00,274.00 378.00,274.00 Z" />
</svg>
