<?xml version="1.0" encoding="UTF-8" standalone="no"?>
<!DOCTYPE svg PUBLIC "-//W3C//DTD SVG 20010904//EN"
              "http://www.w3.org/TR/2001/REC-SVG-20010904/DTD/svg10.dtd">

<svg xmlns="http://www.w3.org/2000/svg"
     width="277.851mm" height="114.051mm"
     viewBox="0 0 1050 431">
  <path id="Selection"
        fill="rgb(90, 66, 100)" stroke="rgb(90, 66, 100)" stroke-width="1"
        d="M 138.00,1.00
           C 138.00,1.00 148.00,1.00 148.00,1.00
             148.00,1.00 148.00,363.00 148.00,363.00
             148.00,363.00 1050.00,363.00 1050.00,363.00
             1050.00,363.00 1050.00,372.00 1050.00,372.00
             1050.00,372.00 0.00,372.00 0.00,372.00
             0.00,372.00 0.00,363.00 0.00,363.00
             0.00,363.00 138.00,363.00 138.00,363.00
             138.00,363.00 138.00,306.00 138.00,306.00
             138.00,306.00 108.00,330.08 108.00,330.08
             102.26,334.85 95.06,341.75 88.00,344.00
             88.00,344.00 89.02,334.04 89.02,334.04
             89.02,334.04 100.00,324.00 100.00,324.00
             100.00,324.00 124.00,304.60 124.00,304.60
             124.00,304.60 137.40,292.82 137.40,292.82
             137.40,292.82 138.00,286.00 138.00,286.00
             138.00,286.00 138.00,244.00 138.00,244.00
             138.00,244.00 106.00,267.63 106.00,267.63
             106.00,267.63 88.00,280.00 88.00,280.00
             88.00,277.07 87.62,271.65 89.02,269.18
             90.41,266.74 97.41,262.07 100.00,260.13
             100.00,260.13 123.00,243.00 123.00,243.00
             126.37,240.59 135.97,234.29 137.40,230.83
             138.12,229.08 138.00,225.93 138.00,224.00
             138.00,224.00 138.00,174.00 138.00,174.00
             138.00,174.00 108.00,196.15 108.00,196.15
             108.00,196.15 88.00,210.00 88.00,210.00
             88.00,207.04 87.62,201.68 89.02,199.17
             90.64,196.28 98.04,191.41 101.00,189.29
             101.00,189.29 124.00,172.37 124.00,172.37
             134.04,164.88 137.98,165.24 138.00,154.00
             138.00,154.00 138.00,106.00 138.00,106.00
             138.00,106.00 110.00,127.37 110.00,127.37
             110.00,127.37 88.00,143.00 88.00,143.00
             88.00,140.04 87.62,134.68 89.02,132.17
             90.51,129.51 97.29,124.90 100.00,122.87
             100.00,122.87 124.00,104.63 124.00,104.63
             132.83,98.00 137.98,97.30 138.00,86.00
             138.00,86.00 138.00,36.00 138.00,36.00
             138.00,36.00 88.00,73.00 88.00,73.00
             88.00,73.00 88.57,62.30 88.57,62.30
             88.57,62.30 99.00,53.13 99.00,53.13
             99.00,53.13 123.00,35.13 123.00,35.13
             123.00,35.13 137.40,22.83 137.40,22.83
             137.40,22.83 138.00,18.00 138.00,18.00
             138.00,18.00 138.00,1.00 138.00,1.00 Z
           M 454.00,59.00
           C 454.00,59.00 753.00,59.00 753.00,59.00
             753.00,59.00 753.00,360.00 753.00,360.00
             753.00,360.00 454.00,360.00 454.00,360.00
             454.00,360.00 454.00,59.00 454.00,59.00 Z
           M 743.00,69.00
           C 743.00,69.00 464.00,69.00 464.00,69.00
             464.00,69.00 464.00,350.00 464.00,350.00
             464.00,350.00 743.00,350.00 743.00,350.00
             743.00,350.00 743.00,69.00 743.00,69.00 Z
           M 399.00,175.00
           C 399.00,175.00 406.08,184.00 406.08,184.00
             407.79,186.07 410.75,189.39 411.38,192.00
             412.26,195.61 409.68,198.35 406.03,197.21
             403.60,196.44 401.54,193.86 399.92,191.98
             399.92,191.98 387.47,177.00 387.47,177.00
             385.72,174.69 383.85,172.07 384.37,169.00
             384.84,166.20 387.14,163.96 389.02,162.00
             392.37,158.50 404.18,145.94 408.00,144.79
             411.62,143.70 414.30,146.38 413.21,150.00
             412.37,152.77 409.01,155.96 407.00,158.00
             407.00,158.00 400.00,165.00 400.00,165.00
             400.00,165.00 438.00,165.00 438.00,165.00
             441.29,165.05 447.37,165.35 447.37,170.00
             447.37,175.33 439.54,174.99 436.00,175.00
             436.00,175.00 399.00,175.00 399.00,175.00 Z
           M 618.00,181.00
           C 618.02,179.12 617.82,176.26 618.99,174.70
             620.76,172.34 633.73,168.51 637.00,168.00
             637.00,168.00 637.00,213.00 637.00,213.00
             637.00,213.00 629.00,213.00 629.00,213.00
             629.00,213.00 629.00,178.00 629.00,178.00
             629.00,178.00 618.00,181.00 618.00,181.00 Z
           M 561.00,179.00
           C 561.00,179.00 569.00,179.00 569.00,179.00
             569.00,179.00 569.00,183.00 569.00,183.00
             577.53,178.68 581.21,177.40 589.00,184.00
             594.10,178.37 604.44,176.84 607.85,185.04
             609.71,189.50 609.00,207.14 609.00,213.00
             609.00,213.00 601.00,213.00 601.00,213.00
             601.00,213.00 601.00,196.00 601.00,196.00
             600.95,192.55 600.87,188.12 596.89,186.79
             593.17,185.55 590.34,188.72 589.21,192.00
             589.21,192.00 589.21,213.00 589.21,213.00
             589.21,213.00 581.00,213.00 581.00,213.00
             581.00,213.00 581.00,195.00 581.00,195.00
             580.94,191.76 580.75,187.79 576.94,186.71
             573.77,185.81 571.10,188.10 570.16,191.04
             570.16,191.04 570.16,213.00 570.16,213.00
             570.16,213.00 561.00,213.00 561.00,213.00
             561.00,213.00 561.00,179.00 561.00,179.00 Z
           M 304.00,215.00
           C 304.00,215.00 452.00,215.00 452.00,215.00
             452.00,215.00 452.00,359.00 452.00,359.00
             452.00,359.00 304.00,359.00 304.00,359.00
             304.00,359.00 304.00,215.00 304.00,215.00 Z
           M 442.00,225.00
           C 442.00,225.00 314.00,225.00 314.00,225.00
             314.00,225.00 314.00,349.00 314.00,349.00
             314.00,349.00 442.00,349.00 442.00,349.00
             442.00,349.00 442.00,225.00 442.00,225.00 Z
           M 391.00,275.00
           C 391.49,266.22 396.07,261.25 405.00,260.34
             413.27,259.49 421.79,264.88 420.63,274.00
             419.57,282.37 408.68,292.82 403.00,299.00
             403.00,299.00 422.00,299.00 422.00,299.00
             422.00,299.00 422.00,306.00 422.00,306.00
             422.00,306.00 392.00,306.00 392.00,306.00
             392.02,304.07 391.92,301.83 392.60,300.00
             394.48,294.90 409.50,282.76 411.33,276.00
             412.71,270.93 408.64,266.94 405.01,267.74
             401.56,268.51 400.01,272.04 399.00,275.00
             399.00,275.00 391.00,275.00 391.00,275.00 Z
           M 204.00,304.86
           C 207.09,308.09 218.33,319.43 219.34,323.00
             220.50,327.04 216.73,330.86 211.04,326.57
             211.04,326.57 195.58,310.00 195.58,310.00
             193.40,307.45 190.24,304.29 189.45,301.00
             187.59,293.31 202.77,281.09 208.00,276.02
             210.03,274.05 213.05,270.94 215.98,270.58
             219.36,270.16 221.14,272.91 220.21,276.00
             219.25,279.17 214.39,283.61 212.00,286.00
             212.00,286.00 203.00,295.00 203.00,295.00
             203.00,295.00 287.00,295.00 287.00,295.00
             289.66,295.00 293.53,294.79 295.85,296.17
             299.91,298.59 298.95,303.15 293.98,304.86
             292.21,305.08 288.92,305.00 287.00,304.86
             287.00,304.86 204.00,304.86 204.00,304.86 Z
           M 337.00,272.00
           C 337.00,272.00 345.00,272.00 345.00,272.00
             345.00,272.00 345.00,276.00 345.00,276.00
             351.48,272.35 357.96,269.52 363.00,277.00
             365.15,275.70 367.67,274.00 370.00,273.15
             375.67,271.07 381.59,273.05 383.66,279.00
             385.64,284.71 385.00,299.32 385.00,306.00
             385.00,306.00 376.00,306.00 376.00,306.00
             376.00,306.00 376.00,288.00 376.00,288.00
             375.94,284.89 375.72,280.63 371.94,279.74
             368.61,278.96 366.05,282.12 365.16,285.00
             365.16,285.00 365.16,306.00 365.16,306.00
             365.16,306.00 356.83,306.00 356.83,306.00
             356.83,306.00 356.83,286.00 356.83,286.00
             356.08,283.20 354.33,279.63 350.99,279.63
             348.03,279.63 345.98,282.40 345.16,285.00
             345.16,285.00 345.16,306.00 345.16,306.00
             345.16,306.00 337.00,306.00 337.00,306.00
             337.00,306.00 337.00,272.00 337.00,272.00 Z" />
</svg>
