<?xml version="1.0" encoding="UTF-8" standalone="no"?>
<!DOCTYPE svg PUBLIC "-//W3C//DTD SVG 20010904//EN"
              "http://www.w3.org/TR/2001/REC-SVG-20010904/DTD/svg10.dtd">

<svg xmlns="http://www.w3.org/2000/svg"
     width="277.851mm" height="114.051mm"
     viewBox="0 0 1050 431">
  <path id="Selection"
        fill="rgb(90, 66, 100)" stroke="rgb(90, 66, 100)" stroke-width="1"
        d="M 138.00,1.00
           C 138.00,1.00 148.00,1.00 148.00,1.00
             148.00,1.00 148.00,363.00 148.00,363.00
             148.00,363.00 1050.00,363.00 1050.00,363.00
             1050.00,363.00 1050.00,372.00 1050.00,372.00
             1050.00,372.00 0.00,372.00 0.00,372.00
             0.00,372.00 0.00,363.00 0.00,363.00
             0.00,363.00 138.00,363.00 138.00,363.00
             138.00,363.00 138.00,306.00 138.00,306.00
             138.00,306.00 108.00,330.08 108.00,330.08
             102.26,334.85 95.06,341.75 88.00,344.00
             88.00,344.00 89.02,334.04 89.02,334.04
             89.02,334.04 100.00,324.00 100.00,324.00
             100.00,324.00 124.00,304.60 124.00,304.60
             124.00,304.60 137.40,292.82 137.40,292.82
             137.40,292.82 138.00,286.00 138.00,286.00
             138.00,286.00 138.00,244.00 138.00,244.00
             138.00,244.00 106.00,267.63 106.00,267.63
             106.00,267.63 88.00,280.00 88.00,280.00
             88.00,277.07 87.62,271.65 89.02,269.18
             90.41,266.74 97.41,262.07 100.00,260.13
             100.00,260.13 123.00,243.00 123.00,243.00
             126.37,240.59 135.97,234.29 137.40,230.83
             138.12,229.08 138.00,225.93 138.00,224.00
             138.00,224.00 138.00,174.00 138.00,174.00
             138.00,174.00 108.00,196.15 108.00,196.15
             108.00,196.15 88.00,210.00 88.00,210.00
             88.00,207.04 87.62,201.68 89.02,199.17
             90.64,196.28 98.04,191.41 101.00,189.29
             101.00,189.29 124.00,172.37 124.00,172.37
             134.04,164.88 137.98,165.24 138.00,154.00
             138.00,154.00 138.00,106.00 138.00,106.00
             138.00,106.00 110.00,127.37 110.00,127.37
             110.00,127.37 88.00,143.00 88.00,143.00
             88.00,140.04 87.62,134.68 89.02,132.17
             90.51,129.51 97.29,124.90 100.00,122.87
             100.00,122.87 124.00,104.63 124.00,104.63
             132.83,98.00 137.98,97.30 138.00,86.00
             138.00,86.00 138.00,36.00 138.00,36.00
             138.00,36.00 88.00,73.00 88.00,73.00
             88.00,73.00 88.57,62.30 88.57,62.30
             88.57,62.30 99.00,53.13 99.00,53.13
             99.00,53.13 123.00,35.13 123.00,35.13
             123.00,35.13 137.40,22.83 137.40,22.83
             137.40,22.83 138.00,18.00 138.00,18.00
             138.00,18.00 138.00,1.00 138.00,1.00 Z
           M 436.00,59.00
           C 436.00,59.00 735.00,59.00 735.00,59.00
             735.00,59.00 735.00,360.00 735.00,360.00
             735.00,360.00 436.00,360.00 436.00,360.00
             436.00,360.00 436.00,59.00 436.00,59.00 Z
           M 725.00,69.00
           C 725.00,69.00 446.00,69.00 446.00,69.00
             446.00,69.00 446.00,350.00 446.00,350.00
             446.00,350.00 725.00,350.00 725.00,350.00
             725.00,350.00 725.00,69.00 725.00,69.00 Z
           M 375.00,177.00
           C 375.00,177.00 382.08,186.00 382.08,186.00
             383.79,188.07 386.75,191.39 387.38,194.00
             388.26,197.61 385.68,200.35 382.03,199.21
             379.60,198.44 377.54,195.86 375.92,193.98
             375.92,193.98 363.47,179.00 363.47,179.00
             361.72,176.69 359.85,174.07 360.37,171.00
             360.84,168.20 363.14,165.96 365.02,164.00
             368.37,160.50 380.18,147.94 384.00,146.79
             387.51,145.74 390.26,148.49 389.21,152.00
             388.37,154.77 385.01,157.96 383.00,160.00
             383.00,160.00 376.00,167.00 376.00,167.00
             376.00,167.00 414.00,167.00 414.00,167.00
             417.29,167.05 423.37,167.35 423.37,172.00
             423.37,177.33 415.54,176.99 412.00,177.00
             412.00,177.00 375.00,177.00 375.00,177.00 Z
           M 600.00,201.00
           C 600.02,199.12 599.82,196.26 600.99,194.70
             602.76,192.34 615.73,188.51 619.00,188.00
             619.00,188.00 619.00,233.00 619.00,233.00
             619.00,233.00 611.00,233.00 611.00,233.00
             611.00,233.00 611.00,198.00 611.00,198.00
             611.00,198.00 600.00,201.00 600.00,201.00 Z
           M 543.00,199.00
           C 543.00,199.00 551.00,199.00 551.00,199.00
             551.00,199.00 551.00,203.00 551.00,203.00
             559.53,198.68 563.21,197.40 571.00,204.00
             576.10,198.37 586.44,196.84 589.85,205.04
             591.71,209.50 591.00,227.14 591.00,233.00
             591.00,233.00 583.00,233.00 583.00,233.00
             583.00,233.00 583.00,216.00 583.00,216.00
             582.95,212.55 582.87,208.12 578.89,206.79
             575.17,205.55 572.34,208.72 571.21,212.00
             571.21,212.00 571.21,233.00 571.21,233.00
             571.21,233.00 563.00,233.00 563.00,233.00
             563.00,233.00 563.00,215.00 563.00,215.00
             562.94,211.76 562.75,207.79 558.94,206.71
             555.77,205.81 553.10,208.10 552.16,211.04
             552.16,211.04 552.16,233.00 552.16,233.00
             552.16,233.00 543.00,233.00 543.00,233.00
             543.00,233.00 543.00,199.00 543.00,199.00 Z
           M 151.00,216.00
           C 151.00,216.00 299.00,216.00 299.00,216.00
             299.00,216.00 299.00,360.00 299.00,360.00
             299.00,360.00 151.00,360.00 151.00,360.00
             151.00,360.00 151.00,216.00 151.00,216.00 Z
           M 289.00,226.00
           C 289.00,226.00 161.00,226.00 161.00,226.00
             161.00,226.00 161.00,350.00 161.00,350.00
             161.00,350.00 289.00,350.00 289.00,350.00
             289.00,350.00 289.00,226.00 289.00,226.00 Z
           M 238.00,276.00
           C 238.49,267.22 243.07,262.25 252.00,261.34
             260.27,260.49 268.79,265.88 267.63,275.00
             266.57,283.37 255.68,293.82 250.00,300.00
             250.00,300.00 269.00,300.00 269.00,300.00
             269.00,300.00 269.00,307.00 269.00,307.00
             269.00,307.00 239.00,307.00 239.00,307.00
             239.02,305.07 238.92,302.83 239.60,301.00
             241.48,295.90 256.50,283.76 258.33,277.00
             259.71,271.93 255.64,267.94 252.01,268.74
             248.56,269.51 247.01,273.04 246.00,276.00
             246.00,276.00 238.00,276.00 238.00,276.00 Z
           M 397.00,286.00
           C 393.91,282.91 382.67,271.57 381.66,268.00
             380.50,263.96 384.27,260.14 389.96,264.43
             389.96,264.43 405.42,281.00 405.42,281.00
             407.60,283.55 410.76,286.71 411.55,290.00
             413.41,297.69 398.23,309.91 393.00,314.98
             390.97,316.95 387.95,320.06 385.02,320.42
             381.64,320.84 379.86,318.09 380.79,315.00
             381.75,311.83 386.61,307.39 389.00,305.00
             389.00,305.00 398.00,295.86 398.00,295.86
             398.00,295.86 314.00,295.86 314.00,295.86
             312.08,296.00 308.79,296.08 307.02,295.86
             302.05,294.15 301.09,289.59 305.15,287.17
             307.47,285.79 311.34,286.00 314.00,286.00
             314.00,286.00 397.00,286.00 397.00,286.00 Z
           M 184.00,273.00
           C 184.00,273.00 192.00,273.00 192.00,273.00
             192.00,273.00 192.00,277.00 192.00,277.00
             198.48,273.35 204.96,270.52 210.00,278.00
             212.15,276.70 214.67,275.00 217.00,274.15
             222.67,272.07 228.59,274.05 230.66,280.00
             232.64,285.71 232.00,300.32 232.00,307.00
             232.00,307.00 223.00,307.00 223.00,307.00
             223.00,307.00 223.00,289.00 223.00,289.00
             222.94,285.89 222.72,281.63 218.94,280.74
             215.61,279.96 213.05,283.12 212.16,286.00
             212.16,286.00 212.16,307.00 212.16,307.00
             212.16,307.00 203.83,307.00 203.83,307.00
             203.83,307.00 203.83,287.00 203.83,287.00
             203.08,284.20 201.33,280.63 197.99,280.63
             195.03,280.63 192.98,283.40 192.16,286.00
             192.16,286.00 192.16,307.00 192.16,307.00
             192.16,307.00 184.00,307.00 184.00,307.00
             184.00,307.00 184.00,273.00 184.00,273.00 Z" />
</svg>
